<svg xmlns="http://www.w3.org/2000/svg" viewBox="0 0 458.06 456.63">
  <path fill="#fff"
    d="M41.27 416.33c0.7,-3.04 20.09,-44.8 22.34,-51.94 2.08,-6.56 -0.22,-11.78 -1.22,-21.07 -1.63,-15.08 4.3,-28.95 10.71,-37.83 5.07,-7.03 86.75,-87.63 98.9,-99.77 3.86,-3.87 23.23,-22.7 24.9,-25.21l80.33 80.03c-3.32,2.27 -105.07,104.77 -112.01,111.72 -9.34,9.34 -15.36,16.01 -29.1,20.42 -12.49,4.01 -20.57,3.18 -32.11,0.99 -4.71,-0.89 -6.2,-1.06 -10.36,0.17l-52.38 22.49zm219.3 -339.57c-6.17,-4.14 -4.91,-4.62 -13.55,-8.86 -4.38,-2.15 -11.45,-4.62 -17.19,-5.21 -7.66,-0.77 -13.41,-0.61 -20.08,0.97 -19.42,4.61 -27.19,14.76 -40.41,27.98 -1.92,1.92 -3.83,3.61 -5.6,5.6 -10,11.21 -12.34,30.39 -4.33,43.54 2.75,4.5 6.85,9.86 10.96,12.62 -1.97,2.95 -100.75,101.04 -112.45,112.74 -7.2,7.2 -8.6,7.75 -14.72,15.94 -10.67,14.29 -19.03,34.58 -19.03,53.48 0,10.75 0.09,8.88 1.12,18.98 0.5,4.87 -8.7,22.6 -10.89,27.84 -2.64,6.32 -5.22,12.06 -7.9,18.04 -4.79,10.64 -6.5,13.18 -6.5,24.16 0,20.32 24.98,39.14 50.62,29.4l45.08 -19.77c7.91,-3.85 7.57,-0.79 18.67,-0.79 17.83,0 24.94,-1.07 40.93,-7.41 20.41,-8.09 31.21,-21.4 45.88,-36.07 7.4,-7.4 100.46,-99.78 102.43,-102.72 7.73,5.17 11.4,15.92 33.6,15.92 13.34,0 21.74,-7.89 29.33,-15.48 17.02,-17.02 31.46,-29.12 28.36,-59.9 -0.77,-7.65 -5.03,-18.26 -9.26,-24.35 -1.3,-1.87 -4.26,-4.94 -4.8,-6.98 2.75,-0.73 21.01,-20.12 23.43,-22.55 12.85,-12.85 29.06,-27.45 39.48,-41.87 7.65,-10.57 14.31,-28.91 14.31,-44.05 0,-15 -1.28,-26.79 -7.85,-39.9 -4.42,-8.84 -9.79,-16.52 -16.44,-23.64 -5.49,-5.87 -16.49,-12.87 -23.65,-16.45 -23.6,-11.82 -53.56,-9.88 -76.85,1.77 -9.19,4.6 -18.94,12.96 -26.27,20.3 -7.91,7.9 -15.38,15.38 -23.29,23.28l-23.14 23.44z" />
</svg>